<svg xmlns="http://www.w3.org/2000/svg" width="120" height="42" version="1.0">
    <path d="m443.29.449 114.063.203c1.594 0 3.018-.237 3.018 3.18l-.14 37.567h-119.82V3.692c0-1.684.163-3.243 2.879-3.243" style="fill:#aab2ab" transform="matrix(.99377 0 0 .99367 -437.12 0)"/>
    <path d="M117.751 0H2.246A2.25 2.25 0 0 0-.001 2.247v39.246c0 .28.226.506.507.506H119.49a.507.507 0 0 0 .506-.506V2.247A2.25 2.25 0 0 0 117.751 0M2.246 1.015H117.75c.68 0 1.233.553 1.233 1.232v27.215H36.427c-3.026 5.47-8.856 9.186-15.546 9.186-6.693 0-12.522-3.712-15.546-9.186H1.013V2.246c0-.679.554-1.232 1.233-1.232"/>
    <path d="M486.267-141.53c.006 8.68-7.028 15.72-15.708 15.727-8.68.005-15.721-7.028-15.727-15.708v-.02c-.006-8.68 7.028-15.722 15.708-15.727s15.723 7.028 15.727 15.709z" style="fill:#fff" transform="matrix(.86748 0 0 .8674 -387.307 142.307)"/>
    <path d="M31.97 8.44q4.535 4.535 4.535 11.104 0 6.57-4.458 10.988-4.73 4.653-11.182 4.653-6.374 0-10.985-4.614-4.614-4.614-4.614-11.027T9.88 8.44q4.496-4.537 10.985-4.537 6.57 0 11.104 4.537m-20.055 2.033Q8.08 14.345 8.08 19.549q0 5.201 3.794 8.994 3.796 3.795 9.037 3.795t9.115-3.833q3.677-3.559 3.677-8.956 0-5.36-3.737-9.095-3.735-3.735-9.055-3.736-5.32 0-8.997 3.756m6.726 7.549q-.584-1.277-1.755-1.277-2.066 0-2.066 2.784t2.066 2.782q1.367.001 1.952-1.356l1.91 1.017q-1.367 2.427-4.1 2.428-2.107 0-3.376-1.293t-1.269-3.563q0-2.232 1.309-3.543t3.26-1.312q2.888 0 4.138 2.275zm8.99 0q-.586-1.277-1.718-1.277-2.11 0-2.11 2.784t2.11 2.782q1.368.001 1.914-1.356l1.954 1.017q-1.364 2.427-4.093 2.428-2.104 0-3.371-1.293t-1.267-3.563q0-2.232 1.287-3.543 1.285-1.313 3.274-1.312 2.883 0 4.13 2.275z"/>
    <path d="M488.253 32.956q.478 0 .87.084.393.084.673.275t.435.508.154.784q0 .504-.23.84-.227.336-.677.55.618.177.923.621t.305 1.07q0 .502-.197.873-.196.368-.528.601a2.3 2.3 0 0 1-.758.346 3.4 3.4 0 0 1-.875.112h-3.236v-6.664zm-.186 2.695q.391 0 .644-.186.252-.186.252-.605a.8.8 0 0 0-.084-.381.63.63 0 0 0-.224-.234 1 1 0 0 0-.322-.116 2 2 0 0 0-.38-.032h-1.372v1.554zm.085 2.828q.214 0 .411-.041.195-.044.347-.14a.7.7 0 0 0 .238-.267.9.9 0 0 0 .089-.428q0-.513-.29-.733-.29-.218-.767-.219h-1.6v1.828zm2.812-5.523h1.644l1.56 2.632 1.551-2.632h1.634l-2.474 4.106v2.558h-1.468v-2.595zm21.866 0 2.785 4.47h.015v-4.47h1.375v6.664h-1.465l-2.774-4.462h-.018v4.462h-1.375v-6.664zm9.739 1.775a1.5 1.5 0 0 0-.77-.616 1.5 1.5 0 0 0-.518-.089q-.495 0-.841.192a1.6 1.6 0 0 0-.56.512 2.3 2.3 0 0 0-.313.733 3.6 3.6 0 0 0 0 1.665q.098.398.313.714.215.317.56.509t.84.191q.673 0 1.05-.411.38-.411.462-1.083h1.42a3.4 3.4 0 0 1-.29 1.13 2.6 2.6 0 0 1-1.513 1.403 3.3 3.3 0 0 1-1.128.188q-.766 0-1.378-.267a3 3 0 0 1-1.032-.732 3.2 3.2 0 0 1-.646-1.098 4 4 0 0 1-.225-1.36q0-.747.225-1.386.224-.64.646-1.116.42-.477 1.032-.747.612-.271 1.378-.271.55 0 1.04.16.49.157.878.462.387.303.64.752.25.449.317 1.027h-1.42a1.2 1.2 0 0 0-.167-.462m16.261-1.775 2.785 4.47h.015v-4.47h1.375v6.664h-1.465l-2.774-4.462h-.018v4.462h-1.375v-6.664zm8.337 0q.645 0 1.202.205.555.206.963.616.405.411.634 1.027.23.616.23 1.447 0 .728-.187 1.344-.187.615-.565 1.063a2.65 2.65 0 0 1-.944.705q-.565.257-1.333.257h-2.877v-6.664zm-.102 5.43q.318 0 .616-.103.3-.102.532-.34t.374-.62q.14-.383.14-.932 0-.504-.098-.91a1.8 1.8 0 0 0-.322-.694 1.43 1.43 0 0 0-.593-.443q-.37-.154-.91-.154h-1.046v4.196z" style="fill:#fff" transform="matrix(.99377 0 0 .99367 -437.12 0)"/>
    <path d="M269.618-131.735a8.74 8.74 0 0 1-17.479.013v-.013a8.74 8.74 0 0 1 17.48-.013z" style="fill:#fff" transform="matrix(1.13968 0 0 1.13956 -219.478 165.101)"/>
    <path d="M77.823 3.386q4.878 0 8.244 3.362 3.368 3.364 3.368 8.233t-3.31 8.146q-3.512 3.45-8.302 3.45-4.73 0-8.156-3.422-3.425-3.418-3.424-8.174 0-4.754 3.424-8.233 3.34-3.362 8.156-3.362m-8.972 8.48a9.345 9.344 0 0 0-.52 3.115q.002 3.854 2.817 6.667t6.706 2.812q3.887 0 6.761-2.84a8.89 8.889 0 0 0 1.585-2.03l-4.371-1.946c-.296 1.47-1.607 2.464-3.191 2.58v1.79h-1.332v-1.79c-1.302-.013-2.558-.547-3.52-1.388l1.597-1.61c.77.724 1.539 1.049 2.59 1.049.679 0 1.433-.266 1.433-1.151a.87.87 0 0 0-.312-.698l-1.106-.491-1.376-.614-1.838-.817zm9.003-6.393q-3.948 0-6.678 2.784a10.7 10.7 0 0 0-1.29 1.565l4.432 1.974c.4-1.23 1.569-1.976 2.988-2.059V7.95h1.332v1.787c.916.046 1.922.296 2.913 1.063l-1.524 1.567c-.562-.399-1.27-.68-1.982-.68-.576 0-1.39.178-1.39.901q.002.164.105.295l1.482.659 1.003.448 1.863.828 5.942 2.645a10.3 10.3 0 0 0 .295-2.482q0-3.97-2.787-6.724-2.758-2.784-6.704-2.784"/>
    <path d="M387.834-482.974c.008 9.411-7.617 17.047-17.028 17.055-9.413.006-17.048-7.618-17.055-17.031v-.024c-.006-9.411 7.617-17.047 17.03-17.055 9.411-.007 17.047 7.618 17.053 17.03z" style="fill:#fff" transform="matrix(.6211 0 0 .62104 -126.218 314.927)"/>
    <path d="M103.918 3.384q-4.819 0-8.156 3.362-3.426 3.477-3.426 8.233 0 4.754 3.426 8.174t8.156 3.42q4.79 0 8.302-3.448 3.308-3.277 3.309-8.146 0-4.872-3.368-8.233-3.367-3.363-8.243-3.362m.029 2.085q3.947 0 6.706 2.785 2.785 2.753 2.785 6.725 0 4-2.727 6.638-2.875 2.84-6.764 2.84t-6.706-2.813q-2.815-2.81-2.815-6.665 0-3.857 2.845-6.725 2.728-2.785 6.676-2.785"/>
    <path d="M108.314 12.23h-8.429v1.997h8.429zm0 3.727h-8.429v1.996h8.429z"/>
    <g transform="matrix(.99377 0 0 .99367 -437.12 0)">
        <circle cx="491.947" cy="15.314" r="10.806" style="fill:#fff"/>
        <path d="M495.075 12.187a.754.754 0 0 0-.754-.753h-4.773a.754.754 0 0 0-.754.753v4.773h1.332v5.652h3.617V16.96h1.332z"/>
        <circle cx="491.935" cy="9.172" r="1.632"/>
        <path clip-rule="evenodd" d="M491.92 3.408q-4.848 0-8.208 3.384-3.446 3.5-3.446 8.284t3.446 8.227q3.448 3.441 8.207 3.442 4.82 0 8.355-3.472 3.33-3.296 3.329-8.197t-3.388-8.285-8.296-3.383m.03 2.1q3.971 0 6.746 2.8 2.805 2.771 2.805 6.768 0 4.025-2.747 6.68-2.891 2.859-6.804 2.859-3.915 0-6.748-2.83-2.833-2.828-2.833-6.71 0-3.88 2.862-6.767 2.746-2.8 6.719-2.8" style="fill-rule:evenodd"/>
    </g>
</svg>
