<?xml version="1.0" encoding="UTF-8" standalone="no"?>
<!-- Created with Inkscape (http://www.inkscape.org/) -->

<svg
   width="30"
   height="30"
   viewBox="0 0 7.9374998 7.9375"
   version="1.1"
   id="svg1"
   xmlns="http://www.w3.org/2000/svg"
   xmlns:svg="http://www.w3.org/2000/svg">
  <defs
     id="defs1" />
  <g
     id="layer1">
    <path
       style="-inkscape-font-specification:'A-OTF Shin Go Pro Bold';stroke-width:0.597;paint-order:stroke fill markers"
       d="M 5.3833898,1.9720267 C 5.3692787,2.4588603 5.3622231,2.8257495 5.3340009,3.4184165 5.2422786,3.3901943 4.706056,3.2349719 4.1416112,3.1785275 4.1839446,2.8539717 4.3815003,1.2664707 4.4238336,0.9066371 H 1.1571093 V 1.9790822 L 3.1749995,1.9579156 C 3.1538328,2.1766379 3.1044439,2.7410827 3.0409439,3.1503052 1.7003874,3.2279164 0.72672013,4.0745836 0.72672013,5.1964177 c 0,0.8043338 0.50800037,1.3687786 1.29116747,1.3687786 1.2629453,0 1.6933345,-1.4322787 1.9261679,-2.3636126 0.3668892,0.056445 0.4515559,0.084667 1.2629453,0.3316113 C 4.9106673,5.8596403 3.937,6.0501404 3.4995553,6.1418627 L 4.176889,7.0308633 C 4.8401117,6.826252 5.8490568,6.5016963 6.2441681,4.998862 6.6392795,5.2246399 6.6745573,5.2458066 6.8650574,5.3586955 L 7.2107799,4.1592503 C 7.0132242,4.0534169 6.8509463,3.9616946 6.4417238,3.7923612 6.5122794,3.1996941 6.5616683,2.6634716 6.6110573,2.063749 Z M 2.8574993,4.1239725 C 2.765777,4.5049728 2.525888,5.5068623 2.0108321,5.5068623 c -0.2328335,0 -0.3033891,-0.176389 -0.3033891,-0.3598336 0,-0.2610557 0.1622779,-0.9101672 1.1500563,-1.0230562 z"
       id="text1"
       aria-label="ã¿" />
  </g>
</svg>
