<?xml version="1.0" encoding="UTF-8" standalone="no"?>
<!-- Created with Inkscape (http://www.inkscape.org/) -->

<svg
   width="90mm"
   height="32mm"
   viewBox="0 0 90.000004 32.000001"
   version="1.1"
   id="svg1"
   inkscape:version="1.3-beta (cedbd6c6ff, 2023-05-28)"
   sodipodi:docname="logo.svg"
   xmlns:inkscape="http://www.inkscape.org/namespaces/inkscape"
   xmlns:sodipodi="http://sodipodi.sourceforge.net/DTD/sodipodi-0.dtd"
   xmlns="http://www.w3.org/2000/svg"
   xmlns:svg="http://www.w3.org/2000/svg">
  <sodipodi:namedview
     id="namedview1"
     pagecolor="#000000"
     bordercolor="#000000"
     borderopacity="0.29803922"
     inkscape:showpageshadow="true"
     inkscape:pageopacity="0.0"
     inkscape:pagecheckerboard="true"
     inkscape:deskcolor="#d1d1d1"
     inkscape:document-units="mm"
     inkscape:zoom="1.436055"
     inkscape:cx="-202.63848"
     inkscape:cy="124.99521"
     inkscape:window-width="1920"
     inkscape:window-height="991"
     inkscape:window-x="-9"
     inkscape:window-y="-9"
     inkscape:window-maximized="1"
     inkscape:current-layer="layer1"
     showborder="true" />
  <defs
     id="defs1" />
  <g
     inkscape:label="Layer 1"
     inkscape:groupmode="layer"
     id="layer1">
    <g
       id="g5"
       transform="translate(-21.145835,-46.303685)"
       style="fill:#ffffff;fill-opacity:1">
      <path
         style="-inkscape-font-specification:'A-OTF Shin Go Pro Bold';stroke-width:0.597;paint-order:stroke fill markers;fill:#ffffff;fill-opacity:1"
         d="m 22.127621,67.49203 c 0,5.6134 1.3208,7.2644 9.499599,7.2644 4.3434,0 8.763,-0.4318 8.763,-5.9944 0,-3.556 -2.0828,-4.3688 -2.8448,-4.6736 2.4892,-0.8382 2.4892,-3.4798 2.4892,-4.089399 0,-5.6388 -5.0546,-5.6642 -8.8646,-5.6642 -6.527799,0 -8.534399,1.3462 -8.635999,6.756399 h 4.165599 c 0,-1.981199 0.127,-2.895599 4.2672,-2.895599 3.0988,0 4.9276,0.0508 4.9276,2.311399 0,2.1082 -1.5748,2.1082 -2.7178,2.1082 h -4.1656 v 3.3528 h 4.1656 c 1.27,0 3.0226,0.0508 3.0226,2.4384 0,2.2098 -1.8796,2.5146 -4.3434,2.5146 -5.3086,0 -5.588,-0.508 -5.5372,-3.429 z m 24.638013,-1.0922 V 54.538031 h -3.8354 V 74.55323 h 3.8354 v -7.874 l 7.0612,7.874 h 5.0038 l -7.6708,-8.0264 6.985,-6.934199 h -5.0038 z M 60.329219,59.592631 V 74.55323 h 3.8354 v -8.7376 c 0,-1.7018 0.3556,-2.8956 4.0386,-2.8956 2.413,0 3.048,0.762 3.048,2.0828 v 9.5504 h 3.8354 v -10.3632 c 0,-3.6322 -1.6256,-4.800599 -5.7658,-4.800599 -2.413,0 -4.2164,0.381 -5.2578,1.879599 l -0.0762,-1.676399 z M 78.261606,70.26063 v 4.2926 h 4.2926 v -4.2926 z M 88.447021,54.538031 v 3.5052 h 4.140199 v -3.5052 z m 0.0762,5.0546 V 72.80063 c 0,1.6002 -0.5842,1.6002 -3.5052,1.5748 v 3.5814 h 1.1176 c 3.886199,0 6.400799,0 6.400799,-4.0132 V 59.592631 Z m 6.604025,0 V 77.95683 h 3.8354 v -4.7244 c 1.219204,1.3462 2.717804,1.524 4.597404,1.524 5.207,0 6.604,-2.0066 6.604,-7.3152 0,-5.0038 -0.4826,-8.051799 -6.2484,-8.051799 -3.4798,0 -4.267204,0.8382 -5.003804,1.701799 l -0.0762,-1.498599 z m 7.442204,3.276599 c 2.8194,0 3.7338,0.2794 3.7338,4.064 0,3.429 -0.1778,4.3942 -3.6322,4.3942 -2.794004,0 -3.759204,-0.3556 -3.759204,-3.8608 0,-3.8354 0.4064,-4.5974 3.657604,-4.5974 z"
         id="text1"
         aria-label="3kn.jp" />
      <path
         id="path5"
         style="-inkscape-font-specification:'A-OTF Shin Go Pro Bold';stroke-width:0.597;paint-order:stroke fill markers;fill:#ffffff;fill-opacity:1"
         d="m 67.198877,46.678762 c -0.183445,0.620889 -1.150056,3.65478 -1.347612,4.346225 -0.127,0.437445 -0.338667,1.164168 -0.493889,1.580446 l 1.192389,0.373944 c 0.331612,-1.467556 0.359834,-1.531056 0.451556,-1.76389 0.148167,-0.359833 0.4445,-0.945445 0.973667,-0.945445 0.359834,0 0.359834,0.197556 0.359834,0.797279 v 0.345722 c 0,1.213556 0.747889,1.524001 1.411112,1.524001 1.178279,0 1.933223,-0.783167 2.074335,-2.963335 l -1.093612,-0.324556 c -0.127,1.756834 -0.423334,2.159001 -0.860778,2.159001 -0.416279,0 -0.416279,-0.437444 -0.416279,-0.564444 v -0.465667 c 0,-0.500945 0.0071,-1.587501 -1.164167,-1.587501 -0.366889,0 -0.564445,0.127 -0.733778,0.225778 0.204611,-0.599723 0.818445,-2.236613 0.917223,-2.483558 z" />
      <path
         id="path3"
         style="-inkscape-font-specification:'A-OTF Shin Go Pro Bold';stroke-width:0.597;paint-order:stroke fill markers;fill:#ffffff;fill-opacity:1"
         d="m 49.136643,46.65054 c -0.03528,0.4445 -0.04939,0.663223 -0.105833,1.248834 h -1.164168 v 1.072445 l 0.994834,-0.0071 c -0.148167,0.790222 -0.472722,2.222501 -1.164167,3.393724 l 1.086556,0.550334 c 0.627945,-1.06539 1.023056,-2.991558 1.220612,-3.951114 l 0.613834,-0.0071 c 0.479778,-0.0071 0.635,0.218722 0.635,0.867833 0,0.0635 -0.02822,1.150057 -0.239889,1.693335 -0.127,0.310445 -0.373945,0.310445 -0.493889,0.310445 -0.04939,0 -0.3175,-0.0071 -0.952501,-0.112889 l 0.07761,1.107722 c 0.268112,0.04233 0.769056,0.112889 1.107723,0.112889 0.55739,0 0.889001,-0.246944 1.086557,-0.493889 0.381,-0.472722 0.508,-1.76389 0.508,-2.39889 0,-1.368779 -0.366889,-2.137835 -1.559279,-2.137835 h -0.613834 c 0.07056,-0.500945 0.105834,-0.867834 0.134056,-1.19239 z m 5.122337,3.915836 c -0.09172,-1.361723 -0.381001,-2.307168 -1.072445,-3.252613 l -0.973668,0.472722 c 0.388056,0.543278 0.825501,1.305279 0.867834,2.977446 z" />
      <path
         id="text2"
         style="-inkscape-font-specification:'A-OTF Shin Go Pro Bold';stroke-width:0.597;paint-order:stroke fill markers;fill:#ffffff;fill-opacity:1"
         d="m 33.169911,47.948763 c -0.01411,0.486834 -0.02117,0.853723 -0.04939,1.44639 -0.09172,-0.02822 -0.627945,-0.183445 -1.19239,-0.239889 0.04233,-0.324556 0.239889,-1.912057 0.282223,-2.271891 h -3.266725 v 1.072446 l 2.01789,-0.02117 c -0.02117,0.218722 -0.07056,0.783167 -0.134055,1.19239 -1.340557,0.07761 -2.314224,0.924278 -2.314224,2.046112 0,0.804334 0.508,1.368779 1.291168,1.368779 1.262945,0 1.693334,-1.432279 1.926167,-2.363613 0.36689,0.05644 0.451556,0.08467 1.262946,0.331611 -0.296334,1.326446 -1.270001,1.516946 -1.707446,1.608668 l 0.677334,0.889001 c 0.663223,-0.204612 1.672168,-0.529167 2.067279,-2.032002 0.395111,0.225778 0.430389,0.246945 0.620889,0.359834 L 34.9973,50.135984 c -0.197556,-0.105834 -0.359834,-0.197556 -0.769056,-0.366889 0.07056,-0.592668 0.119944,-1.12889 0.169333,-1.728613 z m -2.525891,2.151946 c -0.09172,0.381 -0.331611,1.38289 -0.846667,1.38289 -0.232833,0 -0.303389,-0.176389 -0.303389,-0.359834 0,-0.261056 0.162278,-0.910167 1.150056,-1.023056 z" />
    </g>
  </g>
</svg>
